<?xml version="1.0" encoding="utf-8"?>
<!-- Generator: Adobe Illustrator 18.1.0, SVG Export Plug-In . SVG Version: 6.00 Build 0)  -->
<svg version="1.1" id="Layer_1" xmlns="http://www.w3.org/2000/svg" xmlns:xlink="http://www.w3.org/1999/xlink" x="0px" y="0px"
	 viewBox="-49 141 512 512" enable-background="new -49 141 512 512" xml:space="preserve">
<path fill="#FFFFFF" d="M207,141C65.6,141-49,255.6-49,397S65.6,653,207,653s256-114.6,256-256S348.4,141,207,141z M207,613
	C87.7,613-9,516.3-9,397s96.7-216,216-216s216,96.7,216,216S326.3,613,207,613z"/>
<path fill="#FFFFFF" d="M267.8,357.8h-44.5v-32.5c0-10,10.3-12.3,15.1-12.3c4.8,0,28.8,0,28.8,0v-43.9l-33-0.2
	c-45,0-55.2,32.7-55.2,53.7v35.1h-32.6V403h32.6c0,58,0,122,0,122h44.3c0,0,0-64.6,0-122h37.7L267.8,357.8z"/>
</svg>
