<?xml version="1.0" encoding="utf-8"?>
<!-- Generator: Adobe Illustrator 18.1.1, SVG Export Plug-In . SVG Version: 6.00 Build 0)  -->
<svg version="1.1" id="Layer_1" xmlns="http://www.w3.org/2000/svg" xmlns:xlink="http://www.w3.org/1999/xlink" x="0px" y="0px"
	 viewBox="0 0 250.828 79.89" enable-background="new 0 0 250.828 79.89" xml:space="preserve">
<g>
	<path fill="#FFFFFF" d="M83.011,43.928c0,0.908-0.289,1.397-0.867,1.47c-4.372,0.509-7.343,1.325-8.915,2.45
		c-1.572,1.125-2.357,3.375-2.357,6.75v6.423c0,5.589,0.399,9.436,1.198,11.54c-4.83,1.924-10.041,3.493-15.634,4.709
		c-5.593,1.215-10.532,1.823-14.817,1.823c-8.281,0-15.545-1.633-21.791-4.899c-6.247-3.266-11.113-7.938-14.6-14.017
		C1.743,54.098,0,47.339,0,39.9c0-7.403,1.888-14.198,5.666-20.386C9.442,13.328,14.654,8.528,21.3,5.117
		C27.946,1.706,35.481,0,43.908,0c3.268,0,7.662,0.581,13.183,1.742c4.866,1.017,8.588,1.524,11.167,1.524
		c0.471,5.081,1.306,11.25,2.505,18.507c0,0.581-0.581,0.871-1.742,0.871c-0.762,0-1.216-0.29-1.361-0.871
		c-3.197-12.193-11.697-18.29-25.5-18.29c-8.537,0-15.702,3.521-21.496,10.561c-5.793,7.041-8.69,15.659-8.69,25.856
		c0,9.907,2.866,18.335,8.601,25.284c5.733,6.95,12.737,10.424,21.011,10.424c12.156,0,18.235-3.017,18.235-9.052V52.159
		c0-1.999-0.962-3.426-2.885-4.281c-1.924-0.854-6.532-1.645-13.826-2.372c-0.581,0-0.871-0.535-0.871-1.605
		c0-0.999,0.29-1.498,0.871-1.498c2.431,0,6.023,0.091,10.778,0.272c4.573,0.182,7.965,0.272,10.179,0.272
		c2.177,0,5.062-0.09,8.655-0.272c3.846-0.181,6.985-0.272,9.417-0.272C82.72,42.404,83.011,42.912,83.011,43.928z"/>
	<path fill="#FFFFFF" d="M144.961,78.547c-2.021,0-3.779-0.499-5.276-1.496c-1.498-0.998-2.517-2.35-3.058-4.056
		c-3.884,3.991-8.964,5.987-15.242,5.987c-3.266,0-5.933-1.007-8.001-3.021c-2.068-2.015-3.103-4.526-3.103-7.539
		c0-7.438,8.818-13.463,26.455-18.072l0.327-8.492v-0.272c0-2.613-0.646-4.689-1.933-6.232c-1.289-1.542-3.003-2.313-5.144-2.313
		c-2.142,0-3.956,0.517-5.443,1.551c-1.488,1.034-2.25,2.332-2.286,3.892c-0.037,2.323-0.645,4.137-1.824,5.443
		c-1.179,1.307-2.749,1.959-4.708,1.959c-1.162,0-2.105-0.344-2.83-1.034c-0.727-0.689-1.089-1.614-1.089-2.776
		c0-2.794,2.54-5.724,7.621-8.791c5.08-3.066,9.798-4.6,14.153-4.6c3.918,0,7.094,1.162,9.526,3.483
		c2.431,2.323,3.646,5.443,3.646,9.363v0.653l-0.816,24.604v0.381c0,3.811,1.234,5.715,3.701,5.715c1.198,0,2.595-0.725,4.191-2.177
		l0.382-0.109c0.29,0,0.562,0.19,0.816,0.572c0.253,0.381,0.381,0.789,0.381,1.225c0,1.053-1.098,2.341-3.293,3.864
		C149.917,77.786,147.534,78.547,144.961,78.547z M136.627,53.998c-10.56,2.402-15.84,6.369-15.84,11.9
		c0,5.168,1.989,7.751,5.966,7.751c1.917,0,3.806-0.481,5.668-1.446c1.863-0.964,3.119-2.156,3.771-3.575L136.627,53.998z"/>
	<path fill="#FFFFFF" d="M216.427,75.826c0,1.016-0.291,1.524-0.871,1.524c-1.452,0-3.23-0.108-5.334-0.326
		c-2.32-0.218-4.365-0.327-6.139-0.327c-1.809,0-3.889,0.109-6.238,0.327c-2.135,0.218-3.926,0.326-5.371,0.326
		c-0.58,0-0.869-0.509-0.869-1.524c0-0.906,0.29-1.396,0.871-1.47c2.504-0.29,4.146-0.997,4.926-2.122s1.171-3.484,1.171-7.077
		V46.976c0-4.064-0.799-7.04-2.396-8.927c-1.598-1.886-4.064-2.831-7.402-2.831c-2.105,0-3.965,0.4-5.58,1.198
		c-1.615,0.798-3.348,2.214-5.198,4.246v24.495c0,3.593,0.39,5.952,1.171,7.077c0.779,1.125,2.422,1.832,4.926,2.122
		c0.58,0.073,0.871,0.563,0.871,1.47c0,1.016-0.291,1.524-0.871,1.524c-1.488,0-3.303-0.108-5.443-0.326
		c-2.359-0.218-4.428-0.327-6.205-0.327c-1.742,0-3.775,0.109-6.097,0.327c-2.142,0.218-3.956,0.326-5.443,0.326
		c-0.581,0-0.871-0.509-0.871-1.524c0-0.906,0.29-1.396,0.871-1.47c3.12-0.397,5.134-1.149,6.042-2.255
		c0.906-1.105,1.361-3.415,1.361-6.931V45.06c0-2.898-0.373-4.8-1.116-5.707c-0.744-0.906-2.405-1.504-4.981-1.794
		c-0.58,0-0.87-0.48-0.87-1.443c0-0.888,0.29-1.333,0.87-1.333c3.594-0.906,6.587-1.932,8.982-3.075
		c2.395-1.143,3.9-2.077,4.518-2.803c0.362-0.436,0.762-0.653,1.197-0.653c1.016,0,1.524,0.291,1.524,0.871l-0.436,6.858
		c5.216-4.862,10.069-7.294,14.562-7.294c4.927,0,8.776,1.415,11.547,4.246c2.771,2.831,4.156,6.641,4.156,11.431v20.793
		c0,3.558,0.445,5.879,1.334,6.968c0.889,1.089,2.876,1.833,5.961,2.231C216.136,74.429,216.427,74.919,216.427,75.826z"/>
	<path fill="#FFFFFF" d="M250.828,34.021c0,1.959-0.473,2.939-1.415,2.939l-16.222-0.436v26.128c0,6.823,2.432,10.233,7.295,10.233
		c3.012,0,5.751-0.707,8.219-2.122c0.29,0,0.553,0.19,0.789,0.571s0.354,0.789,0.354,1.225c0,0.907-1.351,2.132-4.048,3.674
		s-5.73,2.313-9.1,2.313c-4.128,0-7.424-1.261-9.886-3.783c-2.464-2.521-3.694-5.852-3.694-9.988v-0.489l0.219-26.456
		c0-1.015-0.436-1.524-1.307-1.524h-4.137c-0.799,0-1.198-0.463-1.198-1.39c0-0.713,0.325-1.247,0.977-1.604
		c5.028-2.987,9.405-7.195,13.132-12.625c0.397-0.583,0.903-0.875,1.52-0.875c1.012,0,1.519,0.291,1.519,0.871l-0.435,10.397h16.003
		C250.355,31.082,250.828,32.061,250.828,34.021z"/>
</g>
<path fill="#FFFFFF" d="M101.653,28.617c0,0,0.259-0.292,0.211-0.486c-0.049-0.194-0.211-0.405-0.211-0.405
	s-0.032-0.275,0.032-0.275s0.292-0.146,0.227-0.421c-0.045-0.19,0.016-0.599-0.243-0.745c0,0-0.016-0.194,0.065-0.389
	s0.13-0.47,0.081-0.648c-0.049-0.178-0.243-0.437-0.308-0.453c0,0,0.178-0.713-0.032-1.02c-0.211-0.308-0.534-0.405-0.534-0.405
	s-0.259-0.211-0.534-0.243c-0.275-0.032-0.858,0.194-0.858,0.194l-0.324-0.13c0,0-0.453-0.13-0.907-0.648
	c-0.453-0.518-1.555-0.907-2.462-0.777c-0.907,0.13-3.433,0.648-3.887,1.425c-0.453,0.777-0.648,1.166-0.648,1.166
	s-0.162,0.907-0.162,1.749s0.162,1.134,0.162,1.134l-0.81,0.713c0,0-0.065,0.259,0.292,0.583c0,0,0.259,0.324,0.194,0.389
	c-0.065,0.065,0,0.583-0.032,0.68c-0.032,0.097-0.032,0.13,0.113,0.146c0,0-0.194,0.243,0.049,0.292c0,0,0.275,0.178,0.227,0.372
	c-0.049,0.194-0.049,0.972,0.664,0.875c0.713-0.097,1.781-0.324,2.089,0.243c0.308,0.567,0.389,0.794,0.389,0.794l-1.879,0.745
	c0,0-0.453,0.113-0.502,0.324s0.097,0.453,0.097,0.453s-0.146,0.372-0.065,0.534c0.081,0.162,0.081,0.632,0.081,0.632
	s-0.729,1.522-0.875,2.008c-0.146,0.486-1.175,3.241-0.847,8.245c0.329,5.003,0.083,6.326,0.407,7.298l0.375-0.61
	c0,0,0.939,2.656,1.263,3.401s0.615,3.045,1.036,3.79c0.421,0.745,0.551,2.786,0.551,2.786s-0.101,0.68,0.694,1.555
	c0.796,0.875,0.958,3.466,0.958,3.466l-0.065,2.3c0,0,0.227,0.453,0,0.518c0,0-0.227-0.032-0.227,0.389l-0.032,0.356h-0.518
	c0,0-0.069,0.292-0.115,1.069c-0.047,0.777-0.144,2.559-0.856,3.077c-0.713,0.518-1.004,0.939-1.328,0.972
	c-0.324,0.032-1.522-0.13-1.911,0.227l-0.097,0.421h-0.198v0.292c0,0,0.231,0.939,1.429,0.939l0.486,0.162
	c0,0-0.389,0.389-0.227,0.648c0,0-0.194,0.68,0.583,0.939c0.777,0.259,3.369,0.615,4.243,0.421c0.875-0.194,1.393-0.259,1.393-0.259
	l0.13,0.315c0,0,2.203,0.347,2.591,0c0,0-0.162-0.25,0-0.833c0.162-0.583-0.065-1.62-0.227-2.073
	c-0.162-0.453-0.486-1.425-0.259-2.105s0.565-1.49,0.542-1.879c-0.023-0.389-0.736-0.777-0.736-0.777s0.13-1.814,0.227-2.462
	c0.097-0.648,0.292-2.008-0.68-5.442c-0.972-3.433-0.615-4.729-0.615-4.729s0.13-0.032-0.097-0.453
	c-0.227-0.421-0.551-1.684-0.551-1.684l-0.097-2.073c0,0-0.421-0.777-0.259-0.907s1.101-0.713,1.198-1.846l0.324-0.097
	c0,0,1.134-2.192,0.453-4.205c-0.68-2.014-1.134-2.82-1.134-2.82s-0.162-0.328-0.065-0.813c0.097-0.485,0.194-1.102,0.194-1.102
	l0.292-1.067c0,0,0.065-0.583,0-0.81s-0.032-0.709,0.13-0.841c0.162-0.131,0.551-0.939,0.551-1.215s0-1.775,0-1.775
	s0.194-1.682,0.032-1.971c-0.162-0.289-0.324-0.742-0.324-0.742s0.761-1.83,0.68-2.802c0,0,0.292-0.243,0.356-0.551
	c0,0,0.453-0.308,0.324-0.777c0,0,0.421-0.227,0.227-0.972c0,0,0.356-0.259,0.356-0.534s-0.211-0.583-0.211-0.583L101.653,28.617z
	 M99.726,24.147c0.518-0.194,0.389,1.344,0.389,1.344S99.208,24.341,99.726,24.147z M100.202,30.852c0,0-0.022,0.47,0.043,0.567
	c0.065,0.097-0.081,0.615,0.032,0.729c0,0-0.875,0.421-1.166,1.166c0,0-0.162,0.194-0.292,0c-0.13-0.194-0.34-0.68-0.34-0.68V32.39
	c0,0,0.065-0.243,0-0.47c-0.065-0.227-0.243-0.518-0.243-0.518h-0.259c0,0-0.47-0.34-0.227-0.777c0.243-0.437,1.296-1.36,1.7-2.219
	c0.405-0.858,0.693-1.636,0.678-1.765c-0.014-0.13,0-0.324,0-0.324s0.131-0.211,0.245,0.13c0,0,0.097,0.227,0,0.437
	c-0.097,0.211-0.027,0.567,0.043,0.615c0.07,0.049,0.056,0.47-0.091,0.47c-0.147,0-0.208,0.648,0.066,0.842
	c0.273,0.194,0.066,0.664,0.066,0.664l0.075,0.259c0,0-0.261,0.275-0.332,0.632C100.131,30.722,100.202,30.852,100.202,30.852z"/>
</svg>
