<?xml version="1.0" encoding="utf-8"?>
<!-- Generator: Adobe Illustrator 18.1.0, SVG Export Plug-In . SVG Version: 6.00 Build 0)  -->
<svg version="1.1" id="Layer_1" xmlns="http://www.w3.org/2000/svg" xmlns:xlink="http://www.w3.org/1999/xlink" x="0px" y="0px"
	 viewBox="-49 141 512 512" enable-background="new -49 141 512 512" xml:space="preserve">
<path fill="#FFFFFF" d="M207,141C65.6,141-49,255.6-49,397S65.6,653,207,653s256-114.6,256-256S348.4,141,207,141z M207,613
	C87.7,613-9,516.3-9,397s96.7-216,216-216s216,96.7,216,216S326.3,613,207,613z"/>
<g>
	<path fill="#FFFFFF" d="M207,365c-26.5,0-48,21.5-48,48c0,26.5,21.5,48,48,48c26.5,0,48-21.5,48-48C255,386.5,233.5,365,207,365z"
		/>
	<path fill="#FFFFFF" d="M319,333h-71.9c-3.6,0-7.3-14.5-8.1-16.1c-1.6-3.2-7.2-15.9-16-15.9h-32c-8.8,0-14.4,12.7-16,15.9
		c-0.8,1.5-4.4,16.1-8.1,16.1H95c-8.8,0-16,7.2-16,16.1v128c0,8.8,7.2,15.9,16,15.9h224c8.8,0,16-7.1,16-15.9v-128
		C335,340.2,327.8,333,319,333z M207,477c-35.3,0-64-28.6-64-64c0-35.3,28.7-64,64-64c35.4,0,64,28.7,64,64
		C271,448.4,242.4,477,207,477z"/>
</g>
</svg>
